<svg width="100" height="101" viewBox="0 0 100 101" fill="none" xmlns="http://www.w3.org/2000/svg">
<path d="M73.9584 29.8749C72.9584 29.7082 71.9167 29.6666 70.8334 29.6666H29.1667C28.0001 29.6666 26.8751 29.75 25.7917 29.9166C26.3751 28.75 27.2084 27.6667 28.2084 26.6667L41.7501 13.0834C47.4584 7.41671 56.7084 7.41671 62.4167 13.0834L69.7084 20.4582C72.3751 23.0832 73.7917 26.4166 73.9584 29.8749Z" fill="#F4F9FF"/>
<path d="M20.8334 63C11.6251 63 4.16675 70.4583 4.16675 79.6667C4.16675 82.7917 5.04175 85.75 6.58341 88.25C9.45841 93.0833 14.7501 96.3333 20.8334 96.3333C26.9167 96.3333 32.2084 93.0833 35.0834 88.25C36.6251 85.75 37.5001 82.7917 37.5001 79.6667C37.5001 70.4583 30.0417 63 20.8334 63ZM27.0417 82.7083H23.9584V85.9584C23.9584 87.6667 22.5417 89.0834 20.8334 89.0834C19.1251 89.0834 17.7084 87.6667 17.7084 85.9584V82.7083H14.6251C12.9167 82.7083 11.5001 81.2916 11.5001 79.5833C11.5001 77.8749 12.9167 76.4583 14.6251 76.4583H17.7084V73.5001C17.7084 71.7917 19.1251 70.3751 20.8334 70.3751C22.5417 70.3751 23.9584 71.7917 23.9584 73.5001V76.4583H27.0417C28.7501 76.4583 30.1667 77.8749 30.1667 79.5833C30.1667 81.2916 28.7917 82.7083 27.0417 82.7083Z" fill="#F4F9FF"/>
<path opacity="0.5" d="M91.6666 50.5V71.3333C91.6666 83.8333 83.3332 92.1666 70.8332 92.1666H31.7916C33.0833 91.0833 34.2083 89.75 35.0833 88.25C36.6249 85.75 37.4999 82.7916 37.4999 79.6666C37.4999 70.4583 30.0416 63 20.8333 63C15.8333 63 11.3749 65.2082 8.33325 68.6666V50.5C8.33325 39.1666 15.1666 31.2499 25.7916 29.9166C26.8749 29.7499 27.9999 29.6666 29.1666 29.6666H70.8332C71.9166 29.6666 72.9583 29.7082 73.9583 29.8749C84.7083 31.1249 91.6666 39.0833 91.6666 50.5Z" fill="#F4F9FF"/>
<path d="M91.6666 52.5834H79.1666C74.5833 52.5834 70.8333 56.3334 70.8333 60.9167C70.8333 65.5 74.5833 69.25 79.1666 69.25H91.6666" fill="#F4F9FF"/>
</svg>
