<svg width="100" height="100" viewBox="0 0 100 100" fill="none" xmlns="http://www.w3.org/2000/svg">
<path opacity="0.5" d="M83.7501 28.9165C83.7501 31.1665 82.5417 33.208 80.6251 34.2497L73.375 38.1664L67.2084 41.4582L54.4167 48.3748C53.0417 49.1248 51.5417 49.4999 50 49.4999C48.4584 49.4999 46.9584 49.1248 45.5834 48.3748L19.375 34.2497C17.4583 33.208 16.25 31.1665 16.25 28.9165C16.25 26.6665 17.4583 24.6247 19.375 23.5831L27.5833 19.1664L34.125 15.6248L45.5834 9.45825C48.3334 7.95825 51.6667 7.95825 54.4167 9.45825L80.6251 23.5831C82.5417 24.6247 83.7501 26.6665 83.7501 28.9165Z" fill="white"/>
<path opacity="0.5" d="M41.2499 53.2917L16.8749 41.0834C14.9999 40.125 12.8332 40.25 11.0416 41.3333C9.24989 42.4167 8.20825 44.3335 8.20825 46.4168V69.4583C8.20825 73.4583 10.4165 77.0417 13.9999 78.8333L38.3749 91.0002C39.2082 91.4169 40.1249 91.625 41.0416 91.625C42.1249 91.625 43.2083 91.3335 44.1666 90.7085C45.9583 89.6252 46.9999 87.7084 46.9999 85.625V62.5835C47.0416 58.6668 44.8332 55.0833 41.2499 53.2917Z" fill="white"/>
<path opacity="0.5" d="M91.7916 46.4586V69.5001C91.7916 73.4584 89.5833 77.0417 86 78.8334L61.625 91.0417C60.7917 91.4584 59.8749 91.6668 58.9583 91.6668C57.8749 91.6668 56.7917 91.3753 55.7917 90.7503C54.0417 89.6669 52.9583 87.7501 52.9583 85.6668V62.6667C52.9583 58.6667 55.1666 55.0834 58.75 53.2917L67.7083 48.8334L73.9583 45.7084L83.125 41.1251C85 40.1668 87.1666 40.2501 88.9583 41.3751C90.7083 42.4584 91.7916 44.3752 91.7916 46.4586Z" fill="white"/>
<path d="M73.3749 38.1666L67.2083 41.4584L27.5833 19.1666L34.1249 15.625L72.3749 37.2083C72.7916 37.4583 73.1249 37.7916 73.3749 38.1666Z" fill="white"/>
<path d="M73.9583 45.7083V55.1667C73.9583 56.875 72.5416 58.2917 70.8333 58.2917C69.1249 58.2917 67.7083 56.875 67.7083 55.1667V48.8333L73.9583 45.7083Z" fill="white"/>
</svg>
