<svg width="100" height="100" viewBox="0 0 100 100" fill="none" xmlns="http://www.w3.org/2000/svg">
<path fill-rule="evenodd" clip-rule="evenodd" d="M100 50C100 77.6142 77.6142 100 50 100C22.3858 100 0 77.6142 0 50C0 22.3858 22.3858 0 50 0C77.6142 0 100 22.3858 100 50ZM51.7913 36.9122C46.9281 38.935 37.2085 43.1216 22.6325 49.4722C20.2655 50.4134 19.0256 51.3342 18.9128 52.2346C18.722 53.7562 20.6275 54.3554 23.2224 55.1713C23.5753 55.2823 23.941 55.3973 24.316 55.5192C26.8689 56.3491 30.303 57.3199 32.0883 57.3585C33.7077 57.3935 35.5151 56.7258 37.5106 55.3556C51.1294 46.1625 58.1595 41.5159 58.6009 41.4157C58.9122 41.345 59.3437 41.2562 59.6361 41.516C59.9285 41.7759 59.8997 42.268 59.8687 42.4C59.68 43.2048 52.2001 50.1587 48.3292 53.7574C47.1225 54.8793 46.2665 55.6751 46.0916 55.8568C45.6996 56.2639 45.3001 56.6491 44.9162 57.0192C42.5444 59.3055 40.7659 61.0201 45.0146 63.82C47.0563 65.1654 48.6901 66.278 50.32 67.388C52.1002 68.6003 53.8757 69.8094 56.173 71.3153C56.7582 71.6989 57.3172 72.0974 57.8616 72.4855C59.9332 73.9624 61.7944 75.2892 64.0937 75.0776C65.4298 74.9547 66.8098 73.6984 67.5107 69.9515C69.1671 61.0964 72.423 41.9102 73.1755 34.0041C73.2414 33.3114 73.1585 32.4249 73.0919 32.0357C73.0253 31.6466 72.8861 31.0921 72.3803 30.6817C71.7812 30.1956 70.8564 30.0931 70.4428 30.1003C68.5622 30.1335 65.6769 31.1367 51.7913 36.9122Z" fill="white"/>
</svg>
