<svg width="91" height="26" viewBox="0 0 91 26" fill="none" xmlns="http://www.w3.org/2000/svg">
<path fill-rule="evenodd" clip-rule="evenodd" d="M16.1072 6.06265H13.5069C8.29365 6.06265 3.84132 19.0001 9.99343 18.9878H13.9507C16.2341 18.9878 17.9209 19.8023 17.1724 22.0065L16.1455 25.0375H11.9467L8.53461 24.9996C4.17093 24.9624 1.35503 22.8458 0.340623 19.6396C-0.763012 16.1703 0.796958 8.94272 5.28736 4.30877C7.9001 1.61611 11.5153 0 16.1455 0H24.7072L23.3626 3.79561C22.5548 6.09411 20.9466 6.07583 19.9226 6.06419C19.8531 6.06341 19.7861 6.06265 19.7224 6.06265H16.1072ZM63.4075 9.50694H49.6194C47.3366 9.50694 46.3088 10.1326 45.8902 11.4227L44.5965 15.5558H58.3848C60.6677 15.5558 61.6952 14.9298 62.114 13.6395L63.4075 9.50694ZM46.2582 19.0001H60.0462L58.7523 23.1342C58.3337 24.4239 57.3062 25.0499 55.0231 25.0499H41.2348L42.529 20.9168C42.9476 19.6269 43.9748 19.0001 46.2582 19.0001ZM52.8163 0.0249635H66.6041L65.3104 4.15894C64.8916 5.44817 63.8641 6.07498 61.5812 6.07498H47.7929L49.0866 1.94186C49.5051 0.651777 50.533 0.0249635 52.8163 0.0249635ZM31.9372 6.05018H35.3749C38.305 6.05018 37.6327 9.65724 36.1486 13.1768C34.8418 16.2703 32.5334 19.0126 29.7809 19.0126H24.0603C21.7769 19.0126 20.7241 19.6395 20.2801 20.9299L18.8724 25.05H23.071L27.1681 25.0121C30.8084 24.9872 33.7766 24.7241 37.2648 21.6304C40.9436 18.3617 45.2306 9.88253 44.4949 4.9854C43.9243 1.13986 41.8313 0.0125051 36.7573 0.0125051H27.5233L22.1449 15.5433H25.557H25.6091C27.6043 15.5436 28.6231 15.5437 29.6922 12.7006L31.9372 6.05018ZM67.6062 25.0499H61.0989L69.8512 1.21818e-05H76.3586L72.6291 10.7844H72.7049C73.4821 9.81699 74.2692 8.99749 75.0484 8.18615C75.1469 8.08357 75.2453 7.98113 75.3436 7.87852L82.8403 1.21818e-05H90.8186L78.4765 11.0597L83.6137 25.0499H78.6289C77.0308 25.0499 76.3077 24.0858 75.597 21.8817L73.3011 14.7542L70.3965 17.1719L67.6062 25.0499Z" fill="#1DB248"/>
</svg>
