<svg width="69" height="50" viewBox="0 0 69 50" fill="none" xmlns="http://www.w3.org/2000/svg">
<g clip-path="url(#clip0_263_1515)">
<path fill-rule="evenodd" clip-rule="evenodd" d="M19.211 16.477H16.468C16.1824 16.4956 15.9132 16.6174 15.7108 16.8198C15.5084 17.0222 15.3866 17.2914 15.368 17.577V38.252C15.3671 38.3972 15.3959 38.541 15.4527 38.6746C15.5094 38.8083 15.5929 38.9289 15.698 39.029C15.7959 39.1356 15.9152 39.2203 16.048 39.2777C16.1809 39.335 16.3243 39.3638 16.469 39.362H19.212C19.3513 39.3605 19.4888 39.3301 19.6159 39.2728C19.7429 39.2155 19.8566 39.1325 19.95 39.029C20.0629 38.9339 20.1532 38.8148 20.2142 38.6804C20.2753 38.5459 20.3056 38.3996 20.303 38.252V17.587C20.2973 17.4456 20.2631 17.3068 20.2024 17.179C20.1418 17.0511 20.0559 16.9369 19.95 16.843C19.8629 16.7297 19.751 16.6378 19.6229 16.5743C19.4948 16.5109 19.3539 16.4776 19.211 16.477ZM44.238 16.533H42.024C41.7348 16.4735 41.4343 16.502 41.1615 16.6148C40.8886 16.7277 40.6558 16.9196 40.493 17.166L34.17 31.156H34.06L28.034 17.166C27.955 16.9707 27.8171 16.8048 27.6395 16.6914C27.4619 16.5779 27.2535 16.5226 27.043 16.533H24.058C23.8897 16.5123 23.7189 16.5375 23.5638 16.606C23.4087 16.6744 23.275 16.7837 23.177 16.922C23.0995 17.0595 23.0635 17.2166 23.0732 17.3741C23.083 17.5317 23.1381 17.6831 23.232 17.81L33.032 39.319C33.1181 39.5054 33.2595 39.6607 33.437 39.764C33.6145 39.8672 33.8194 39.9133 34.024 39.896H34.324C34.5193 39.9018 34.7121 39.8502 34.8784 39.7477C35.0448 39.6452 35.1774 39.4961 35.26 39.319L45.06 17.811C45.1535 17.6839 45.2085 17.5326 45.2182 17.3751C45.228 17.2176 45.1921 17.0607 45.115 16.923C45.0149 16.7878 44.8816 16.6807 44.7279 16.6122C44.5742 16.5437 44.4055 16.5161 44.238 16.532V16.533ZM57.5 16.012C55.9695 15.9919 54.452 16.294 53.0458 16.8985C51.6397 17.503 50.3764 18.3965 49.338 19.521C48.2426 20.6173 47.378 21.922 46.7952 23.3581C46.2124 24.7941 45.9234 26.3324 45.945 27.882C45.9039 31.0342 47.1165 34.0737 49.316 36.332C50.3543 37.456 51.614 38.353 53.0158 38.9664C54.4177 39.5799 55.9313 39.8966 57.4615 39.8966C58.9917 39.8966 60.5053 39.5799 61.9072 38.9664C63.309 38.353 64.5687 37.456 65.607 36.332C66.7043 35.2182 67.5693 33.8975 68.1518 32.4465C68.7343 30.9956 69.0226 29.4433 69 27.88C69.0216 26.3304 68.7325 24.7921 68.1498 23.3561C67.567 21.92 66.7024 20.6153 65.607 19.519C64.5767 18.3992 63.3226 17.5083 61.9261 16.904C60.5295 16.2997 59.0216 15.9965 57.5 16.012ZM62.292 33.1C61.6776 33.7594 60.9346 34.2858 60.1089 34.6468C59.2831 35.0078 58.3921 35.1957 57.4909 35.1989C56.5896 35.2021 55.6973 35.0205 54.869 34.6654C54.0407 34.3102 53.294 33.789 52.675 33.134C51.366 31.7085 50.6665 29.8275 50.726 27.893C50.6727 25.9993 51.3737 24.1619 52.675 22.785C53.2901 22.124 54.0378 21.6003 54.8693 21.2482C55.7008 20.8962 56.5972 20.7237 57.5 20.742C58.3986 20.7188 59.2916 20.8892 60.1184 21.2417C60.9453 21.5942 61.6866 22.1206 62.292 22.785C62.9365 23.4666 63.4404 24.2686 63.7748 25.1451C64.1092 26.0215 64.2676 26.9553 64.241 27.893C64.2779 29.8135 63.5809 31.6758 62.292 33.1ZM8.912 16.477H1.10001C0.959274 16.4832 0.821258 16.5179 0.694382 16.5791C0.567506 16.6403 0.454419 16.7267 0.362 16.833C0.254879 16.9281 0.168389 17.0442 0.107849 17.1741C0.0473097 17.3039 0.0139994 17.4448 0.00999451 17.588V20.353C0.0132425 20.4996 0.0461059 20.6439 0.106598 20.7775C0.16709 20.911 0.253966 21.0309 0.362 21.13C0.456851 21.2316 0.570932 21.3133 0.697617 21.3705C0.824301 21.4277 0.961076 21.4591 1.10001 21.463H5.06599V41.371C5.07102 42.2603 4.75152 43.1208 4.16737 43.7913C3.58323 44.4618 2.77456 44.8962 1.89301 45.013H1.10001C0.809039 45.0214 0.532471 45.1415 0.327667 45.3484C0.122863 45.5552 0.00553024 45.833 0 46.124V48.889C0.00195369 49.1759 0.108642 49.4522 0.300003 49.666C0.400828 49.7748 0.523742 49.8608 0.660507 49.9182C0.797272 49.9757 0.944728 50.0032 1.093 49.999H1.479C3.64851 49.9878 5.73219 49.1502 7.3058 47.6566C8.87941 46.1631 9.82463 44.126 9.94901 41.96C9.98143 41.788 9.99617 41.613 9.993 41.438V17.587C9.99397 17.4418 9.96519 17.298 9.90843 17.1643C9.85168 17.0307 9.76815 16.9101 9.66299 16.81C9.56994 16.7028 9.45441 16.6173 9.32462 16.5598C9.19482 16.5022 9.05395 16.474 8.912 16.477Z" fill="#0B1F35"/>
<path fill-rule="evenodd" clip-rule="evenodd" d="M0.0669964 0C-0.616004 12.98 9.95799 14.824 9.95799 14.824C9.42999 0.61 0.0669964 0 0.0669964 0Z" fill="#1BC339"/>
</g>
<defs>
<clipPath id="clip0_263_1515">
<rect width="69" height="50" fill="white"/>
</clipPath>
</defs>
</svg>
