<svg width="1371" height="633" viewBox="0 0 1371 633" fill="none" xmlns="http://www.w3.org/2000/svg">
<path opacity="0.07" d="M323.5 632.3C317.5 632.3 314.5 629.3 314.5 623.3C314.5 617.3 317.5 614.3 323.5 614.3C329.5 614.3 332.5 617.3 332.5 623.3C332.5 629.3 329.5 632.3 323.5 632.3ZM323.5 599.9C317.5 599.9 314.5 596.9 314.5 590.9C314.5 584.9 317.5 581.9 323.5 581.9C329.5 581.9 332.5 584.9 332.5 590.9C332.5 596.9 329.5 599.9 323.5 599.9ZM323.5 567.5C317.5 567.5 314.5 564.5 314.5 558.5C314.5 552.5 317.5 549.5 323.5 549.5C329.5 549.5 332.5 552.5 332.5 558.5C332.5 564.5 329.5 567.5 323.5 567.5ZM323.5 535.1C317.5 535.1 314.5 532.1 314.5 526.1C314.5 520.1 317.5 517.1 323.5 517.1C329.5 517.1 332.5 520.1 332.5 526.1C332.5 532.1 329.5 535.1 323.5 535.1ZM323.5 502.7C317.5 502.7 314.5 499.7 314.5 493.7C314.5 487.7 317.5 484.7 323.5 484.7C329.5 484.7 332.5 487.7 332.5 493.7C332.5 499.7 329.5 502.7 323.5 502.7ZM324.4 470.3C318.4 470.3 315.4 467.3 315.4 461.3C315.4 455.3 318.4 452.3 324.4 452.3C330.4 452.3 333.4 455.3 333.4 461.3C333.4 467.3 330.4 470.3 324.4 470.3ZM324.4 437.9C318.4 437.9 315.4 434.9 315.4 428.9C315.4 422.9 318.4 419.9 324.4 419.9C330.4 419.9 333.4 422.9 333.4 428.9C333.4 434.9 330.4 437.9 324.4 437.9ZM324.4 405.5C318.4 405.5 315.4 402.5 315.4 396.5C315.4 390.5 318.4 387.5 324.4 387.5C330.4 387.5 333.4 390.5 333.4 396.5C333.4 402.5 330.4 405.5 324.4 405.5ZM324.4 373.1C318.4 373.1 315.4 370.1 315.4 364.1C315.4 358.1 318.4 355.1 324.4 355.1C330.4 355.1 333.4 358.1 333.4 364.1C333.4 370.1 330.4 373.1 324.4 373.1ZM324.4 340.7C318.4 340.7 315.4 337.7 315.4 331.7C315.4 325.7 318.4 322.7 324.4 322.7C330.4 322.7 333.4 325.7 333.4 331.7C333.4 337.7 330.4 340.7 324.4 340.7ZM324.4 308.3C318.4 308.3 315.4 305.3 315.4 299.3C315.4 293.3 318.4 290.3 324.4 290.3C330.4 290.3 333.4 293.3 333.4 299.3C333.4 305.3 330.4 308.3 324.4 308.3ZM324.4 275.9C318.4 275.9 315.4 272.9 315.4 266.9C315.4 260.9 318.4 257.9 324.4 257.9C330.4 257.9 333.4 260.9 333.4 266.9C333.4 272.9 330.4 275.9 324.4 275.9ZM324.4 243.5C318.4 243.5 315.4 240.5 315.4 234.5C315.4 228.5 318.4 225.5 324.4 225.5C330.4 225.5 333.4 228.5 333.4 234.5C333.4 240.5 330.4 243.5 324.4 243.5ZM324.4 211.1C318.4 211.1 315.4 208.1 315.4 202.1C315.4 196.1 318.4 193.1 324.4 193.1C330.4 193.1 333.4 196.1 333.4 202.1C333.4 208.1 330.4 211.1 324.4 211.1ZM324.4 178.7C318.4 178.7 315.4 175.7 315.4 169.7C315.4 163.7 318.4 160.7 324.4 160.7C330.4 160.7 333.4 163.7 333.4 169.7C333.4 175.7 330.4 178.7 324.4 178.7ZM324.4 146.3C318.4 146.3 315.4 143.3 315.4 137.3C315.4 131.3 318.4 128.3 324.4 128.3C330.4 128.3 333.4 131.3 333.4 137.3C333.4 143.3 330.4 146.3 324.4 146.3ZM324.4 114.8C318.4 114.8 315.4 111.8 315.4 105.8C315.4 99.8 318.4 96.8 324.4 96.8C330.4 96.8 333.4 99.8 333.4 105.8C333.4 111.8 330.4 114.8 324.4 114.8ZM324.4 82.4C318.4 82.4 315.4 79.4 315.4 73.4C315.4 67.4 318.4 64.4 324.4 64.4C330.4 64.4 333.4 67.4 333.4 73.4C333.4 79.4 330.4 82.4 324.4 82.4ZM324.4 50C318.4 50 315.4 47 315.4 41C315.4 35 318.4 32 324.4 32C330.4 32 333.4 35 333.4 41C333.4 47 330.4 50 324.4 50ZM355.9 470.3C349.9 470.3 346.9 467.3 346.9 461.3C346.9 455.3 349.9 452.3 355.9 452.3C361.9 452.3 364.9 455.3 364.9 461.3C364.9 467.3 361.9 470.3 355.9 470.3ZM387.4 470.3C381.4 470.3 378.4 467.3 378.4 461.3C378.4 455.3 381.4 452.3 387.4 452.3C393.4 452.3 396.4 455.3 396.4 461.3C396.4 467.3 393.4 470.3 387.4 470.3ZM418.9 470.3C412.9 470.3 409.9 467.3 409.9 461.3C409.9 455.3 412.9 452.3 418.9 452.3C424.9 452.3 427.9 455.3 427.9 461.3C427.9 467.3 424.9 470.3 418.9 470.3ZM198.4 470.3C192.4 470.3 189.4 467.3 189.4 461.3C189.4 455.3 192.4 452.3 198.4 452.3C204.4 452.3 207.4 455.3 207.4 461.3C207.4 467.3 204.4 470.3 198.4 470.3ZM229.9 470.3C223.9 470.3 220.9 467.3 220.9 461.3C220.9 455.3 223.9 452.3 229.9 452.3C235.9 452.3 238.9 455.3 238.9 461.3C238.9 467.3 235.9 470.3 229.9 470.3ZM261.4 470.3C255.4 470.3 252.4 467.3 252.4 461.3C252.4 455.3 255.4 452.3 261.4 452.3C267.4 452.3 270.4 455.3 270.4 461.3C270.4 467.3 267.4 470.3 261.4 470.3ZM292.9 470.3C286.9 470.3 283.9 467.3 283.9 461.3C283.9 455.3 286.9 452.3 292.9 452.3C298.9 452.3 301.9 455.3 301.9 461.3C301.9 467.3 298.9 470.3 292.9 470.3ZM72.4 470.3C66.4 470.3 63.4 467.3 63.4 461.3C63.4 455.3 66.4 452.3 72.4 452.3C78.4 452.3 81.4 455.3 81.4 461.3C81.4 467.3 78.4 470.3 72.4 470.3ZM103.9 470.3C97.9 470.3 94.9 467.3 94.9 461.3C94.9 455.3 97.9 452.3 103.9 452.3C109.9 452.3 112.9 455.3 112.9 461.3C112.9 467.3 109.9 470.3 103.9 470.3ZM135.4 470.3C129.4 470.3 126.4 467.3 126.4 461.3C126.4 455.3 129.4 452.3 135.4 452.3C141.4 452.3 144.4 455.3 144.4 461.3C144.4 467.3 141.4 470.3 135.4 470.3ZM166.9 470.3C160.9 470.3 157.9 467.3 157.9 461.3C157.9 455.3 160.9 452.3 166.9 452.3C172.9 452.3 175.9 455.3 175.9 461.3C175.9 467.3 172.9 470.3 166.9 470.3ZM9.4 470.3C3.4 470.3 0.400002 467.3 0.400002 461.3C0.400002 455.3 3.4 452.3 9.4 452.3C15.4 452.3 18.4 455.3 18.4 461.3C18.4 467.3 15.4 470.3 9.4 470.3ZM40.9 470.3C34.9 470.3 31.9 467.3 31.9 461.3C31.9 455.3 34.9 452.3 40.9 452.3C46.9 452.3 49.9 455.3 49.9 461.3C49.9 467.3 46.9 470.3 40.9 470.3ZM23.8 440.6C17.8 440.6 14.8 437.6 14.8 431.6C14.8 425.6 17.8 422.6 23.8 422.6C29.8 422.6 32.8 425.6 32.8 431.6C32.8 437.6 29.8 440.6 23.8 440.6ZM43.6 413.6C37.6 413.6 34.6 410.6 34.6 404.6C34.6 398.6 37.6 395.6 43.6 395.6C49.6 395.6 52.6 398.6 52.6 404.6C52.6 410.6 49.6 413.6 43.6 413.6ZM63.4 386.6C57.4 386.6 54.4 383.6 54.4 377.6C54.4 371.6 57.4 368.6 63.4 368.6C69.4 368.6 72.4 371.6 72.4 377.6C72.4 383.6 69.4 386.6 63.4 386.6ZM82.3 359.6C76.3 359.6 73.3 356.6 73.3 350.6C73.3 344.6 76.3 341.6 82.3 341.6C88.3 341.6 91.3 344.6 91.3 350.6C91.3 356.6 88.3 359.6 82.3 359.6ZM102.1 333.5C96.1 333.5 93.1 330.5 93.1 324.5C93.1 318.5 96.1 315.5 102.1 315.5C108.1 315.5 111.1 318.5 111.1 324.5C111.1 330.5 108.1 333.5 102.1 333.5ZM120.1 307.4C114.1 307.4 111.1 304.4 111.1 298.4C111.1 292.4 114.1 289.4 120.1 289.4C126.1 289.4 129.1 292.4 129.1 298.4C129.1 304.4 126.1 307.4 120.1 307.4ZM139.9 281.3C133.9 281.3 130.9 278.3 130.9 272.3C130.9 266.3 133.9 263.3 139.9 263.3C145.9 263.3 148.9 266.3 148.9 272.3C148.9 278.3 145.9 281.3 139.9 281.3ZM159.7 255.2C153.7 255.2 150.7 252.2 150.7 246.2C150.7 240.2 153.7 237.2 159.7 237.2C165.7 237.2 168.7 240.2 168.7 246.2C168.7 252.2 165.7 255.2 159.7 255.2ZM179.5 228.2C173.5 228.2 170.5 225.2 170.5 219.2C170.5 213.2 173.5 210.2 179.5 210.2C185.5 210.2 188.5 213.2 188.5 219.2C188.5 225.2 185.5 228.2 179.5 228.2ZM199.3 202.1C193.3 202.1 190.3 199.1 190.3 193.1C190.3 187.1 193.3 184.1 199.3 184.1C205.3 184.1 208.3 187.1 208.3 193.1C208.3 199.1 205.3 202.1 199.3 202.1ZM218.2 176C212.2 176 209.2 173 209.2 167C209.2 161 212.2 158 218.2 158C224.2 158 227.2 161 227.2 167C227.2 173 224.2 176 218.2 176ZM238 149.9C232 149.9 229 146.9 229 140.9C229 134.9 232 131.9 238 131.9C244 131.9 247 134.9 247 140.9C247 146.9 244 149.9 238 149.9ZM258.7 124.7C252.7 124.7 249.7 121.7 249.7 115.7C249.7 109.7 252.7 106.7 258.7 106.7C264.7 106.7 267.7 109.7 267.7 115.7C267.7 121.7 264.7 124.7 258.7 124.7ZM277.6 98.6C271.6 98.6 268.6 95.6 268.6 89.6C268.6 83.6 271.6 80.6 277.6 80.6C283.6 80.6 286.6 83.6 286.6 89.6C286.6 95.6 283.6 98.6 277.6 98.6ZM297.4 72.5C291.4 72.5 288.4 69.5 288.4 63.5C288.4 57.5 291.4 54.5 297.4 54.5C303.4 54.5 306.4 57.5 306.4 63.5C306.4 69.5 303.4 72.5 297.4 72.5ZM677.425 545C671.425 545 668.425 542 668.425 536C668.425 530 671.425 527 677.425 527C683.425 527 686.425 530 686.425 536C686.425 542 683.425 545 677.425 545ZM710.725 542.3C704.725 542.3 701.725 539.3 701.725 533.3C701.725 527.3 704.725 524.3 710.725 524.3C716.725 524.3 719.725 527.3 719.725 533.3C719.725 539.3 716.725 542.3 710.725 542.3ZM743.125 534.2C737.125 534.2 734.125 531.2 734.125 525.2C734.125 519.2 737.125 516.2 743.125 516.2C749.125 516.2 752.125 519.2 752.125 525.2C752.125 531.2 749.125 534.2 743.125 534.2ZM772.825 520.7C766.825 520.7 763.825 517.7 763.825 511.7C763.825 505.7 766.825 502.7 772.825 502.7C778.825 502.7 781.825 505.7 781.825 511.7C781.825 517.7 778.825 520.7 772.825 520.7ZM799.825 502.7C793.825 502.7 790.825 499.7 790.825 493.7C790.825 487.7 793.825 484.7 799.825 484.7C805.825 484.7 808.825 487.7 808.825 493.7C808.825 499.7 805.825 502.7 799.825 502.7ZM823.225 481.1C817.225 481.1 814.225 478.1 814.225 472.1C814.225 466.1 817.225 463.1 823.225 463.1C829.225 463.1 832.225 466.1 832.225 472.1C832.225 478.1 829.225 481.1 823.225 481.1ZM843.025 455.9C837.025 455.9 834.025 452.9 834.025 446.9C834.025 440.9 837.025 437.9 843.025 437.9C849.025 437.9 852.025 440.9 852.025 446.9C852.025 452.9 849.025 455.9 843.025 455.9ZM859.225 428C853.225 428 850.225 425 850.225 419C850.225 413 853.225 410 859.225 410C865.225 410 868.225 413 868.225 419C868.225 425 865.225 428 859.225 428ZM871.825 397.4C865.825 397.4 862.825 394.4 862.825 388.4C862.825 382.4 865.825 379.4 871.825 379.4C877.825 379.4 880.825 382.4 880.825 388.4C880.825 394.4 877.825 397.4 871.825 397.4ZM881.725 365C875.725 365 872.725 362 872.725 356C872.725 350 875.725 347 881.725 347C887.725 347 890.725 350 890.725 356C890.725 362 887.725 365 881.725 365ZM888.025 331.7C882.025 331.7 879.025 328.7 879.025 322.7C879.025 316.7 882.025 313.7 888.025 313.7C894.025 313.7 897.025 316.7 897.025 322.7C897.025 328.7 894.025 331.7 888.025 331.7ZM890.725 298.4C884.725 298.4 881.725 295.4 881.725 289.4C881.725 283.4 884.725 280.4 890.725 280.4C896.725 280.4 899.725 283.4 899.725 289.4C899.725 295.4 896.725 298.4 890.725 298.4ZM644.125 542.3C638.125 542.3 635.125 539.3 635.125 533.3C635.125 527.3 638.125 524.3 644.125 524.3C650.125 524.3 653.125 527.3 653.125 533.3C653.125 539.3 650.125 542.3 644.125 542.3ZM611.725 534.2C605.725 534.2 602.725 531.2 602.725 525.2C602.725 519.2 605.725 516.2 611.725 516.2C617.725 516.2 620.725 519.2 620.725 525.2C620.725 531.2 617.725 534.2 611.725 534.2ZM582.025 520.7C576.025 520.7 573.025 517.7 573.025 511.7C573.025 505.7 576.025 502.7 582.025 502.7C588.025 502.7 591.025 505.7 591.025 511.7C591.025 517.7 588.025 520.7 582.025 520.7ZM555.925 502.7C549.925 502.7 546.925 499.7 546.925 493.7C546.925 487.7 549.925 484.7 555.925 484.7C561.925 484.7 564.925 487.7 564.925 493.7C564.925 499.7 561.925 502.7 555.925 502.7ZM533.425 480.2C527.425 480.2 524.425 477.2 524.425 471.2C524.425 465.2 527.425 462.2 533.425 462.2C539.425 462.2 542.425 465.2 542.425 471.2C542.425 477.2 539.425 480.2 533.425 480.2ZM513.625 455C507.625 455 504.625 452 504.625 446C504.625 440 507.625 437 513.625 437C519.625 437 522.625 440 522.625 446C522.625 452 519.625 455 513.625 455ZM497.425 427.1C491.425 427.1 488.425 424.1 488.425 418.1C488.425 412.1 491.425 409.1 497.425 409.1C503.425 409.1 506.425 412.1 506.425 418.1C506.425 424.1 503.425 427.1 497.425 427.1ZM484.825 396.5C478.825 396.5 475.825 393.5 475.825 387.5C475.825 381.5 478.825 378.5 484.825 378.5C490.825 378.5 493.825 381.5 493.825 387.5C493.825 393.5 490.825 396.5 484.825 396.5ZM474.925 364.1C468.925 364.1 465.925 361.1 465.925 355.1C465.925 349.1 468.925 346.1 474.925 346.1C480.925 346.1 483.925 349.1 483.925 355.1C483.925 361.1 480.925 364.1 474.925 364.1ZM468.625 330.8C462.625 330.8 459.625 327.8 459.625 321.8C459.625 315.8 462.625 312.8 468.625 312.8C474.625 312.8 477.625 315.8 477.625 321.8C477.625 327.8 474.625 330.8 468.625 330.8ZM465.925 297.5C459.925 297.5 456.925 294.5 456.925 288.5C456.925 282.5 459.925 279.5 465.925 279.5C471.925 279.5 474.925 282.5 474.925 288.5C474.925 294.5 471.925 297.5 465.925 297.5ZM678.325 0.499974C684.325 0.499974 687.325 3.49997 687.325 9.49997C687.325 15.5 684.325 18.5 678.325 18.5C672.325 18.5 669.325 15.5 669.325 9.49997C669.325 3.49997 672.325 0.499974 678.325 0.499974ZM711.625 3.19999C717.625 3.19999 720.625 6.19999 720.625 12.2C720.625 18.2 717.625 21.2 711.625 21.2C705.625 21.2 702.625 18.2 702.625 12.2C702.625 6.19999 705.625 3.19999 711.625 3.19999ZM744.025 11.3C750.025 11.3 753.025 14.3 753.025 20.3C753.025 26.3 750.025 29.3 744.025 29.3C738.025 29.3 735.025 26.3 735.025 20.3C735.025 14.3 738.025 11.3 744.025 11.3ZM773.725 24.8C779.725 24.8 782.725 27.8 782.725 33.8C782.725 39.8 779.725 42.8 773.725 42.8C767.725 42.8 764.725 39.8 764.725 33.8C764.725 27.8 767.725 24.8 773.725 24.8ZM800.725 42.8C806.725 42.8 809.725 45.8 809.725 51.8C809.725 57.8 806.725 60.8 800.725 60.8C794.725 60.8 791.725 57.8 791.725 51.8C791.725 45.8 794.725 42.8 800.725 42.8ZM824.125 64.4C830.125 64.4 833.125 67.4 833.125 73.4C833.125 79.4 830.125 82.4 824.125 82.4C818.125 82.4 815.125 79.4 815.125 73.4C815.125 67.4 818.125 64.4 824.125 64.4ZM843.925 89.6C849.925 89.6 852.925 92.6 852.925 98.6C852.925 104.6 849.925 107.6 843.925 107.6C837.925 107.6 834.925 104.6 834.925 98.6C834.925 92.6 837.925 89.6 843.925 89.6ZM860.125 117.5C866.125 117.5 869.125 120.5 869.125 126.5C869.125 132.5 866.125 135.5 860.125 135.5C854.125 135.5 851.125 132.5 851.125 126.5C851.125 120.5 854.125 117.5 860.125 117.5ZM872.725 148.1C878.725 148.1 881.725 151.1 881.725 157.1C881.725 163.1 878.725 166.1 872.725 166.1C866.725 166.1 863.725 163.1 863.725 157.1C863.725 151.1 866.725 148.1 872.725 148.1ZM882.625 180.5C888.625 180.5 891.625 183.5 891.625 189.5C891.625 195.5 888.625 198.5 882.625 198.5C876.625 198.5 873.625 195.5 873.625 189.5C873.625 183.5 876.625 180.5 882.625 180.5ZM888.925 213.8C894.925 213.8 897.925 216.8 897.925 222.8C897.925 228.8 894.925 231.8 888.925 231.8C882.925 231.8 879.925 228.8 879.925 222.8C879.925 216.8 882.925 213.8 888.925 213.8ZM891.625 247.1C897.625 247.1 900.625 250.1 900.625 256.1C900.625 262.1 897.625 265.1 891.625 265.1C885.625 265.1 882.625 262.1 882.625 256.1C882.625 250.1 885.625 247.1 891.625 247.1ZM645.025 3.19999C651.025 3.19999 654.025 6.19999 654.025 12.2C654.025 18.2 651.025 21.2 645.025 21.2C639.025 21.2 636.025 18.2 636.025 12.2C636.025 6.19999 639.025 3.19999 645.025 3.19999ZM612.625 11.3C618.625 11.3 621.625 14.3 621.625 20.3C621.625 26.3 618.625 29.3 612.625 29.3C606.625 29.3 603.625 26.3 603.625 20.3C603.625 14.3 606.625 11.3 612.625 11.3ZM582.925 24.8C588.925 24.8 591.925 27.8 591.925 33.8C591.925 39.8 588.925 42.8 582.925 42.8C576.925 42.8 573.925 39.8 573.925 33.8C573.925 27.8 576.925 24.8 582.925 24.8ZM556.825 42.8C562.825 42.8 565.825 45.8 565.825 51.8C565.825 57.8 562.825 60.8 556.825 60.8C550.825 60.8 547.825 57.8 547.825 51.8C547.825 45.8 550.825 42.8 556.825 42.8ZM534.325 65.3C540.325 65.3 543.325 68.3 543.325 74.3C543.325 80.3 540.325 83.3 534.325 83.3C528.325 83.3 525.325 80.3 525.325 74.3C525.325 68.3 528.325 65.3 534.325 65.3ZM514.525 90.5C520.525 90.5 523.525 93.5 523.525 99.5C523.525 105.5 520.525 108.5 514.525 108.5C508.525 108.5 505.525 105.5 505.525 99.5C505.525 93.5 508.525 90.5 514.525 90.5ZM498.325 118.4C504.325 118.4 507.325 121.4 507.325 127.4C507.325 133.4 504.325 136.4 498.325 136.4C492.325 136.4 489.325 133.4 489.325 127.4C489.325 121.4 492.325 118.4 498.325 118.4ZM485.725 149C491.725 149 494.725 152 494.725 158C494.725 164 491.725 167 485.725 167C479.725 167 476.725 164 476.725 158C476.725 152 479.725 149 485.725 149ZM475.825 181.4C481.825 181.4 484.825 184.4 484.825 190.4C484.825 196.4 481.825 199.4 475.825 199.4C469.825 199.4 466.825 196.4 466.825 190.4C466.825 184.4 469.825 181.4 475.825 181.4ZM469.525 214.7C475.525 214.7 478.525 217.7 478.525 223.7C478.525 229.7 475.525 232.7 469.525 232.7C463.525 232.7 460.525 229.7 460.525 223.7C460.525 217.7 463.525 214.7 469.525 214.7ZM466.825 248C472.825 248 475.825 251 475.825 257C475.825 263 472.825 266 466.825 266C460.825 266 457.825 263 457.825 257C457.825 251 460.825 248 466.825 248ZM1266.21 632.3C1260.21 632.3 1257.21 629.3 1257.21 623.3C1257.21 617.3 1260.21 614.3 1266.21 614.3C1272.21 614.3 1275.21 617.3 1275.21 623.3C1275.21 629.3 1272.21 632.3 1266.21 632.3ZM1266.21 599.9C1260.21 599.9 1257.21 596.9 1257.21 590.9C1257.21 584.9 1260.21 581.9 1266.21 581.9C1272.21 581.9 1275.21 584.9 1275.21 590.9C1275.21 596.9 1272.21 599.9 1266.21 599.9ZM1266.21 567.5C1260.21 567.5 1257.21 564.5 1257.21 558.5C1257.21 552.5 1260.21 549.5 1266.21 549.5C1272.21 549.5 1275.21 552.5 1275.21 558.5C1275.21 564.5 1272.21 567.5 1266.21 567.5ZM1266.21 535.1C1260.21 535.1 1257.21 532.1 1257.21 526.1C1257.21 520.1 1260.21 517.1 1266.21 517.1C1272.21 517.1 1275.21 520.1 1275.21 526.1C1275.21 532.1 1272.21 535.1 1266.21 535.1ZM1266.21 502.7C1260.21 502.7 1257.21 499.7 1257.21 493.7C1257.21 487.7 1260.21 484.7 1266.21 484.7C1272.21 484.7 1275.21 487.7 1275.21 493.7C1275.21 499.7 1272.21 502.7 1266.21 502.7ZM1267.11 470.3C1261.11 470.3 1258.11 467.3 1258.11 461.3C1258.11 455.3 1261.11 452.3 1267.11 452.3C1273.11 452.3 1276.11 455.3 1276.11 461.3C1276.11 467.3 1273.11 470.3 1267.11 470.3ZM1267.11 437.9C1261.11 437.9 1258.11 434.9 1258.11 428.9C1258.11 422.9 1261.11 419.9 1267.11 419.9C1273.11 419.9 1276.11 422.9 1276.11 428.9C1276.11 434.9 1273.11 437.9 1267.11 437.9ZM1267.11 405.5C1261.11 405.5 1258.11 402.5 1258.11 396.5C1258.11 390.5 1261.11 387.5 1267.11 387.5C1273.11 387.5 1276.11 390.5 1276.11 396.5C1276.11 402.5 1273.11 405.5 1267.11 405.5ZM1267.11 373.1C1261.11 373.1 1258.11 370.1 1258.11 364.1C1258.11 358.1 1261.11 355.1 1267.11 355.1C1273.11 355.1 1276.11 358.1 1276.11 364.1C1276.11 370.1 1273.11 373.1 1267.11 373.1ZM1267.11 340.7C1261.11 340.7 1258.11 337.7 1258.11 331.7C1258.11 325.7 1261.11 322.7 1267.11 322.7C1273.11 322.7 1276.11 325.7 1276.11 331.7C1276.11 337.7 1273.11 340.7 1267.11 340.7ZM1267.11 308.3C1261.11 308.3 1258.11 305.3 1258.11 299.3C1258.11 293.3 1261.11 290.3 1267.11 290.3C1273.11 290.3 1276.11 293.3 1276.11 299.3C1276.11 305.3 1273.11 308.3 1267.11 308.3ZM1267.11 275.9C1261.11 275.9 1258.11 272.9 1258.11 266.9C1258.11 260.9 1261.11 257.9 1267.11 257.9C1273.11 257.9 1276.11 260.9 1276.11 266.9C1276.11 272.9 1273.11 275.9 1267.11 275.9ZM1267.11 243.5C1261.11 243.5 1258.11 240.5 1258.11 234.5C1258.11 228.5 1261.11 225.5 1267.11 225.5C1273.11 225.5 1276.11 228.5 1276.11 234.5C1276.11 240.5 1273.11 243.5 1267.11 243.5ZM1267.11 211.1C1261.11 211.1 1258.11 208.1 1258.11 202.1C1258.11 196.1 1261.11 193.1 1267.11 193.1C1273.11 193.1 1276.11 196.1 1276.11 202.1C1276.11 208.1 1273.11 211.1 1267.11 211.1ZM1267.11 178.7C1261.11 178.7 1258.11 175.7 1258.11 169.7C1258.11 163.7 1261.11 160.7 1267.11 160.7C1273.11 160.7 1276.11 163.7 1276.11 169.7C1276.11 175.7 1273.11 178.7 1267.11 178.7ZM1267.11 146.3C1261.11 146.3 1258.11 143.3 1258.11 137.3C1258.11 131.3 1261.11 128.3 1267.11 128.3C1273.11 128.3 1276.11 131.3 1276.11 137.3C1276.11 143.3 1273.11 146.3 1267.11 146.3ZM1267.11 114.8C1261.11 114.8 1258.11 111.8 1258.11 105.8C1258.11 99.8 1261.11 96.8 1267.11 96.8C1273.11 96.8 1276.11 99.8 1276.11 105.8C1276.11 111.8 1273.11 114.8 1267.11 114.8ZM1267.11 82.4C1261.11 82.4 1258.11 79.4 1258.11 73.4C1258.11 67.4 1261.11 64.4 1267.11 64.4C1273.11 64.4 1276.11 67.4 1276.11 73.4C1276.11 79.4 1273.11 82.4 1267.11 82.4ZM1267.11 50C1261.11 50 1258.11 47 1258.11 41C1258.11 35 1261.11 32 1267.11 32C1273.11 32 1276.11 35 1276.11 41C1276.11 47 1273.11 50 1267.11 50ZM1298.61 470.3C1292.61 470.3 1289.61 467.3 1289.61 461.3C1289.61 455.3 1292.61 452.3 1298.61 452.3C1304.61 452.3 1307.61 455.3 1307.61 461.3C1307.61 467.3 1304.61 470.3 1298.61 470.3ZM1330.11 470.3C1324.11 470.3 1321.11 467.3 1321.11 461.3C1321.11 455.3 1324.11 452.3 1330.11 452.3C1336.11 452.3 1339.11 455.3 1339.11 461.3C1339.11 467.3 1336.11 470.3 1330.11 470.3ZM1361.61 470.3C1355.61 470.3 1352.61 467.3 1352.61 461.3C1352.61 455.3 1355.61 452.3 1361.61 452.3C1367.61 452.3 1370.61 455.3 1370.61 461.3C1370.61 467.3 1367.61 470.3 1361.61 470.3ZM1141.11 470.3C1135.11 470.3 1132.11 467.3 1132.11 461.3C1132.11 455.3 1135.11 452.3 1141.11 452.3C1147.11 452.3 1150.11 455.3 1150.11 461.3C1150.11 467.3 1147.11 470.3 1141.11 470.3ZM1172.61 470.3C1166.61 470.3 1163.61 467.3 1163.61 461.3C1163.61 455.3 1166.61 452.3 1172.61 452.3C1178.61 452.3 1181.61 455.3 1181.61 461.3C1181.61 467.3 1178.61 470.3 1172.61 470.3ZM1204.11 470.3C1198.11 470.3 1195.11 467.3 1195.11 461.3C1195.11 455.3 1198.11 452.3 1204.11 452.3C1210.11 452.3 1213.11 455.3 1213.11 461.3C1213.11 467.3 1210.11 470.3 1204.11 470.3ZM1235.61 470.3C1229.61 470.3 1226.61 467.3 1226.61 461.3C1226.61 455.3 1229.61 452.3 1235.61 452.3C1241.61 452.3 1244.61 455.3 1244.61 461.3C1244.61 467.3 1241.61 470.3 1235.61 470.3ZM1015.11 470.3C1009.11 470.3 1006.11 467.3 1006.11 461.3C1006.11 455.3 1009.11 452.3 1015.11 452.3C1021.11 452.3 1024.11 455.3 1024.11 461.3C1024.11 467.3 1021.11 470.3 1015.11 470.3ZM1046.61 470.3C1040.61 470.3 1037.61 467.3 1037.61 461.3C1037.61 455.3 1040.61 452.3 1046.61 452.3C1052.61 452.3 1055.61 455.3 1055.61 461.3C1055.61 467.3 1052.61 470.3 1046.61 470.3ZM1078.11 470.3C1072.11 470.3 1069.11 467.3 1069.11 461.3C1069.11 455.3 1072.11 452.3 1078.11 452.3C1084.11 452.3 1087.11 455.3 1087.11 461.3C1087.11 467.3 1084.11 470.3 1078.11 470.3ZM1109.61 470.3C1103.61 470.3 1100.61 467.3 1100.61 461.3C1100.61 455.3 1103.61 452.3 1109.61 452.3C1115.61 452.3 1118.61 455.3 1118.61 461.3C1118.61 467.3 1115.61 470.3 1109.61 470.3ZM952.115 470.3C946.115 470.3 943.115 467.3 943.115 461.3C943.115 455.3 946.115 452.3 952.115 452.3C958.115 452.3 961.115 455.3 961.115 461.3C961.115 467.3 958.115 470.3 952.115 470.3ZM983.615 470.3C977.615 470.3 974.615 467.3 974.615 461.3C974.615 455.3 977.615 452.3 983.615 452.3C989.615 452.3 992.615 455.3 992.615 461.3C992.615 467.3 989.615 470.3 983.615 470.3ZM966.515 440.6C960.515 440.6 957.515 437.6 957.515 431.6C957.515 425.6 960.515 422.6 966.515 422.6C972.515 422.6 975.515 425.6 975.515 431.6C975.515 437.6 972.515 440.6 966.515 440.6ZM986.315 413.6C980.315 413.6 977.315 410.6 977.315 404.6C977.315 398.6 980.315 395.6 986.315 395.6C992.315 395.6 995.315 398.6 995.315 404.6C995.315 410.6 992.315 413.6 986.315 413.6ZM1006.11 386.6C1000.11 386.6 997.115 383.6 997.115 377.6C997.115 371.6 1000.11 368.6 1006.11 368.6C1012.11 368.6 1015.11 371.6 1015.11 377.6C1015.11 383.6 1012.11 386.6 1006.11 386.6ZM1025.01 359.6C1019.01 359.6 1016.01 356.6 1016.01 350.6C1016.01 344.6 1019.01 341.6 1025.01 341.6C1031.01 341.6 1034.01 344.6 1034.01 350.6C1034.01 356.6 1031.01 359.6 1025.01 359.6ZM1044.81 333.5C1038.81 333.5 1035.81 330.5 1035.81 324.5C1035.81 318.5 1038.81 315.5 1044.81 315.5C1050.81 315.5 1053.81 318.5 1053.81 324.5C1053.81 330.5 1050.81 333.5 1044.81 333.5ZM1062.81 307.4C1056.81 307.4 1053.81 304.4 1053.81 298.4C1053.81 292.4 1056.81 289.4 1062.81 289.4C1068.81 289.4 1071.81 292.4 1071.81 298.4C1071.81 304.4 1068.81 307.4 1062.81 307.4ZM1082.61 281.3C1076.61 281.3 1073.61 278.3 1073.61 272.3C1073.61 266.3 1076.61 263.3 1082.61 263.3C1088.61 263.3 1091.61 266.3 1091.61 272.3C1091.61 278.3 1088.61 281.3 1082.61 281.3ZM1102.41 255.2C1096.41 255.2 1093.41 252.2 1093.41 246.2C1093.41 240.2 1096.41 237.2 1102.41 237.2C1108.41 237.2 1111.41 240.2 1111.41 246.2C1111.41 252.2 1108.41 255.2 1102.41 255.2ZM1122.21 228.2C1116.21 228.2 1113.21 225.2 1113.21 219.2C1113.21 213.2 1116.21 210.2 1122.21 210.2C1128.21 210.2 1131.21 213.2 1131.21 219.2C1131.21 225.2 1128.21 228.2 1122.21 228.2ZM1142.01 202.1C1136.01 202.1 1133.01 199.1 1133.01 193.1C1133.01 187.1 1136.01 184.1 1142.01 184.1C1148.01 184.1 1151.01 187.1 1151.01 193.1C1151.01 199.1 1148.01 202.1 1142.01 202.1ZM1160.91 176C1154.91 176 1151.91 173 1151.91 167C1151.91 161 1154.91 158 1160.91 158C1166.91 158 1169.91 161 1169.91 167C1169.91 173 1166.91 176 1160.91 176ZM1180.71 149.9C1174.71 149.9 1171.71 146.9 1171.71 140.9C1171.71 134.9 1174.71 131.9 1180.71 131.9C1186.71 131.9 1189.71 134.9 1189.71 140.9C1189.71 146.9 1186.71 149.9 1180.71 149.9ZM1201.41 124.7C1195.41 124.7 1192.41 121.7 1192.41 115.7C1192.41 109.7 1195.41 106.7 1201.41 106.7C1207.41 106.7 1210.41 109.7 1210.41 115.7C1210.41 121.7 1207.41 124.7 1201.41 124.7ZM1220.31 98.6C1214.31 98.6 1211.31 95.6 1211.31 89.6C1211.31 83.6 1214.31 80.6 1220.31 80.6C1226.31 80.6 1229.31 83.6 1229.31 89.6C1229.31 95.6 1226.31 98.6 1220.31 98.6ZM1240.11 72.5C1234.11 72.5 1231.11 69.5 1231.11 63.5C1231.11 57.5 1234.11 54.5 1240.11 54.5C1246.11 54.5 1249.11 57.5 1249.11 63.5C1249.11 69.5 1246.11 72.5 1240.11 72.5Z" fill="black"/>
</svg>
