<svg width="368" height="67" viewBox="0 0 368 67" fill="none" xmlns="http://www.w3.org/2000/svg">
<path d="M13.4637 38.2311C14.0186 39.2443 14.3554 40.2166 14.1825 40.7715H30.9395C32.0475 30.4921 21.9339 26.2934 16.7389 25.2598C14.0833 24.6686 8.01068 22.6938 4.96331 21.2756C1.15365 19.5028 -1.96374 19.946 1.49934 26.593C4.62471 32.5893 8.5044 34.9967 11.8026 36.695C12.4878 37.0487 13.0932 37.5548 13.4637 38.2311Z" fill="black"/>
<path d="M28.3662 0.000846863C32.2663 0.000846863 31.7637 4.13758 31.0253 6.2055C28.1889 5.85095 24.5255 10.1942 23.0479 12.4102C19.9456 7.53507 23.4911 0.000846863 28.3662 0.000846863Z" fill="black"/>
<path d="M24.8183 9.30664C24.6703 7.68191 25.7047 4.69747 29.2502 5.76112L24.8183 9.30664Z" fill="#E42825"/>
<path d="M64.2637 0.444119C56.4636 -1.32864 55.1047 4.72799 55.3999 7.97834C57.5272 8.3329 61.3094 14.6262 62.9341 17.7285C71.7979 15.5126 74.0139 2.66007 64.2637 0.444119Z" fill="black"/>
<path d="M63.8179 7.53329C66.2998 10.3697 63.3747 12.2603 61.602 12.8516C60.8929 11.7879 58.6477 9.45407 57.6133 8.41967C58.0565 5.76053 60.7156 3.98777 63.8179 7.53329Z" fill="#E42825"/>
<path d="M35.0117 3.54406C15.1568 8.50779 17.5793 31.317 21.2728 42.1016H66.4782C66.9214 38.1129 67.8078 29.515 67.8078 27.0331C67.8078 23.9308 59.8303 -2.66059 35.0117 3.54406Z" fill="#E42825"/>
<path d="M61.6957 13.3369C59.4798 10.6778 51.5024 -0.623557 34.6612 3.58674C23.7046 6.32566 19.5325 14.499 18.6133 23.0871C18.7923 27.9622 22.961 37.5351 38.2067 36.826C53.4524 36.1169 60.2181 20.8711 61.6957 13.3369Z" fill="white"/>
<path d="M73.1279 37.6706C70.9119 38.557 70.6168 40.039 70.9119 40.7773H54.5139C53.0957 30.4953 66.0369 25.8569 72.6847 24.8225C76.0822 24.2322 80.7508 23.134 84.6508 21.7158C89.5259 19.943 93.5146 20.3862 89.0827 27.034C84.6508 33.6819 77.7282 35.8305 73.1279 37.6706Z" fill="black"/>
<path d="M33.8975 21.0752C34.252 22.4934 36.1143 23.4392 37.0007 23.7344C37.8871 23.4392 39.7485 22.4934 40.103 21.0752C40.5462 19.3025 38.3303 19.3025 37.0007 19.7457C35.6711 19.3025 33.4543 19.3025 33.8975 21.0752Z" fill="black"/>
<path d="M40.7747 13.2945C39.711 17.5492 45.0586 21.5671 47.8657 23.0447C49.4904 23.4879 52.8294 23.5765 53.184 20.3856C53.6272 16.3969 51.8544 11.0786 49.1953 9.30583C46.5361 7.53307 42.1043 7.97626 40.7747 13.2945Z" fill="black"/>
<path d="M34.1276 11.5206C35.1434 16.3957 29.4032 21.1059 27.0366 22.6004C25.6662 23.0489 23.1055 23.368 23.1055 20.1274C23.1055 16.8389 24.8206 13.2934 26.1502 11.5206C27.8724 9.22402 33.0063 6.14208 34.1276 11.5206Z" fill="black"/>
<path d="M30.136 13.2943C31.1155 13.2943 31.9088 14.0876 31.9088 15.0671C31.9088 16.0465 31.1155 16.8398 30.136 16.8398C29.1566 16.8398 28.3633 16.0465 28.3633 15.0671C28.3633 14.0876 29.1566 13.2943 30.136 13.2943Z" fill="white"/>
<path d="M44.804 13.2943C45.7835 13.2943 46.5768 14.0876 46.5768 15.0671C46.5768 16.0465 45.7835 16.8398 44.804 16.8398C43.8246 16.8398 43.0312 16.0465 43.0312 15.0671C43.0312 14.0876 43.8246 13.2943 44.804 13.2943Z" fill="white"/>
<path d="M31.2383 24.8188C31.2383 28.3643 34.7838 31.0234 37.0006 31.0234C39.2166 31.0234 42.7621 28.3643 42.7621 24.8188C42.7621 24.2276 42.3189 23.4006 40.5462 24.8188C38.7734 26.237 37.4438 26.1484 37.0006 26.1484C36.5574 26.1484 35.227 26.237 33.4542 24.8188C31.6815 23.4006 31.2383 24.2276 31.2383 24.8188Z" fill="black"/>
<path d="M36.9997 27.0333C35.936 27.0333 34.477 28.8787 33.8867 29.7651C36.9997 32.3844 39.5374 30.1534 39.7936 29.9938C39.3504 29.1074 38.0633 27.0333 36.9997 27.0333Z" fill="#E42825"/>
<path d="M34.9626 3.54406C15.0766 8.50779 17.5036 31.317 21.2024 42.1016H66.4778C66.921 38.1129 67.8091 29.515 67.8091 27.0331C67.8091 23.9308 59.8193 -2.66059 34.9626 3.54406Z" stroke="black" stroke-width="1.33333"/>
<path d="M7.97656 39.8871H54.4042V66.4785H7.97656V39.8871Z" fill="#FCBF77"/>
<path d="M54.4062 39.8871H77.1171V66.4785H54.4062V39.8871Z" fill="#E7AB65"/>
<path d="M356.188 36.303C355.335 36.303 354.651 36.0566 354.136 35.5626C353.642 35.047 353.395 34.3619 353.395 33.5097V18.6344C353.395 17.7822 353.642 17.1091 354.136 16.6151C354.651 16.0995 355.335 15.841 356.188 15.841H367.328C367.463 16.0658 367.585 16.3459 367.698 16.6824C367.81 17.019 367.867 17.4 367.867 17.8267C367.867 18.5671 367.698 19.1164 367.362 19.4757C367.047 19.8351 366.599 20.0142 366.016 20.0142H358.544V23.7835H366.352C366.487 24.0083 366.609 24.2883 366.722 24.6249C366.834 24.9614 366.891 25.3425 366.891 25.7691C366.891 26.5095 366.733 27.0588 366.419 27.4182C366.105 27.7548 365.656 27.923 365.073 27.923H358.544V32.1299H367.463C367.597 32.3546 367.72 32.6455 367.833 33.0049C367.945 33.3643 368.001 33.7561 368.001 34.1828C368.001 34.9232 367.833 35.4617 367.496 35.7982C367.181 36.1348 366.744 36.303 366.184 36.303H356.188ZM338.999 36.303C338.146 36.303 337.462 36.0566 336.946 35.5626C336.452 35.047 336.206 34.3619 336.206 33.5097V15.7737C336.452 15.7293 336.8 15.6728 337.249 15.6055C337.72 15.5382 338.18 15.5045 338.629 15.5045C339.639 15.5045 340.367 15.6728 340.817 16.0093C341.265 16.3459 341.49 17.0081 341.49 17.9949V32.0289H349.567C349.702 32.2537 349.824 32.5445 349.937 32.9039C350.072 33.2633 350.139 33.6551 350.139 34.0818C350.139 34.8222 349.971 35.3835 349.634 35.7646C349.319 36.1239 348.882 36.303 348.322 36.303H338.999ZM323.414 20.2498C323.099 21.2594 322.707 22.4145 322.236 23.7162C321.786 24.9951 321.361 26.3076 320.957 27.6538H325.769C325.387 26.2403 324.995 24.8941 324.592 23.6153C324.209 22.3135 323.885 21.1921 323.616 20.2498H323.414ZM326.678 31.7597H320.082C319.834 32.5674 319.599 33.3643 319.375 34.1491C319.173 34.934 318.993 35.6299 318.837 36.2357C318.545 36.3259 318.242 36.404 317.928 36.4713C317.613 36.5386 317.232 36.5723 316.784 36.5723C315.796 36.5723 315.044 36.404 314.529 36.0674C314.035 35.7081 313.788 35.2032 313.788 34.553C313.788 34.2393 313.833 33.9364 313.923 33.6443C314.012 33.3522 314.113 33.0157 314.226 32.6347C314.382 32.0289 314.607 31.2777 314.899 30.3798C315.19 29.482 315.505 28.518 315.841 27.4855C316.2 26.4314 316.57 25.3545 316.952 24.2547C317.333 23.1549 317.703 22.1116 318.063 21.1248C318.421 20.1152 318.746 19.1957 319.039 18.3651C319.329 17.5346 319.577 16.8735 319.779 16.3795C320.116 16.1776 320.631 15.9865 321.327 15.8074C322.045 15.6283 322.751 15.5382 323.447 15.5382C324.457 15.5382 325.343 15.6836 326.106 15.9757C326.891 16.2449 327.396 16.7052 327.62 17.3555C328.046 18.5442 328.506 19.9241 329 21.495C329.493 23.066 329.987 24.6814 330.481 26.3413C330.997 28.0012 331.491 29.6394 331.962 31.2548C332.433 32.8703 332.848 34.3174 333.207 35.5963C332.96 35.8884 332.589 36.1239 332.097 36.303C331.625 36.4821 331.053 36.5723 330.38 36.5723C329.415 36.5723 328.731 36.404 328.327 36.0674C327.945 35.7309 327.665 35.2032 327.486 34.4857L326.678 31.7597ZM307.637 20.0815V36.2021C307.39 36.2694 307.042 36.3259 306.594 36.3703C306.145 36.4376 305.674 36.4713 305.18 36.4713C304.126 36.4713 303.386 36.2922 302.959 35.9328C302.532 35.5734 302.319 34.9232 302.319 33.9809V20.0815H297.036C296.901 19.8568 296.766 19.5659 296.632 19.2065C296.52 18.8471 296.464 18.4553 296.464 18.0286C296.464 17.2654 296.632 16.7161 296.968 16.3795C297.305 16.0201 297.765 15.841 298.348 15.841H313.055C313.213 16.0658 313.347 16.3567 313.459 16.7161C313.571 17.0754 313.627 17.4673 313.627 17.894C313.627 18.6344 313.459 19.1837 313.123 19.543C312.786 19.9024 312.326 20.0815 311.743 20.0815H307.637ZM288.604 17.9276C288.604 18.1969 288.503 18.5779 288.301 19.0719C288.122 19.5659 287.796 20.2498 287.325 21.1248C286.854 21.9998 286.215 23.1104 285.407 24.4566C284.622 25.8028 283.623 27.4519 282.412 29.4038V36.2021C282.165 36.2694 281.818 36.3259 281.368 36.3703C280.943 36.4376 280.493 36.4713 280.022 36.4713C278.968 36.4713 278.238 36.2922 277.835 35.9328C277.431 35.5734 277.229 34.946 277.229 34.0482V29.3702C276.646 28.518 276.017 27.5637 275.344 26.5095C274.671 25.4326 274.01 24.3557 273.358 23.2787C272.708 22.1789 272.102 21.102 271.541 20.0479C270.981 18.9938 270.531 18.0514 270.195 17.2209C270.443 16.8399 270.79 16.4913 271.238 16.1776C271.709 15.8639 272.282 15.7064 272.955 15.7064C273.741 15.7064 274.38 15.8747 274.873 16.2112C275.367 16.525 275.838 17.1307 276.286 18.0286C276.332 18.0959 276.444 18.3086 276.623 18.668C276.803 19.0046 277.005 19.4084 277.229 19.8796C277.476 20.3279 277.734 20.8219 278.003 21.3604C278.272 21.8989 278.52 22.4037 278.743 22.8748C278.991 23.3232 279.204 23.7162 279.383 24.0528C279.563 24.3893 279.675 24.5912 279.719 24.6585H279.887C280.247 23.9181 280.573 23.2114 280.863 22.5383C281.178 21.8652 281.481 21.2029 281.772 20.5527C282.064 19.8796 282.356 19.2065 282.647 18.5334C282.962 17.8375 283.287 17.0863 283.623 16.2786C283.983 16.0995 284.376 15.9648 284.801 15.8747C285.251 15.7629 285.665 15.7064 286.046 15.7064C286.765 15.7064 287.371 15.8975 287.864 16.2786C288.358 16.6596 288.604 17.2101 288.604 17.9276ZM260.03 25.3653C261.107 25.3653 261.982 25.1297 262.655 24.6585C263.328 24.1645 263.665 23.4241 263.665 22.4373C263.665 20.5082 262.374 19.543 259.794 19.543C259.435 19.543 259.109 19.5659 258.818 19.6104C258.526 19.6332 258.234 19.6668 257.943 19.7113V25.3653H260.03ZM269.016 22.4037C269.016 23.7054 268.667 24.8713 267.973 25.9038C267.299 26.9362 266.379 27.7548 265.213 28.3605C266.132 29.5721 267.007 30.7164 267.838 31.7933C268.69 32.8474 269.319 33.7008 269.723 34.3511C269.521 35.0686 269.138 35.6191 268.578 36.0001C268.04 36.3595 267.445 36.5386 266.795 36.5386C265.941 36.5386 265.291 36.3595 264.843 36.0001C264.393 35.6191 263.968 35.1023 263.564 34.452L260.333 29.4375H258.011V36.2021C257.763 36.2694 257.416 36.3259 256.967 36.3703C256.518 36.4376 256.047 36.4713 255.554 36.4713C254.499 36.4713 253.758 36.2922 253.333 35.9328C252.929 35.5734 252.727 34.9232 252.727 33.9809V17.6584C252.727 17.2101 252.839 16.8615 253.064 16.6151C253.31 16.3687 253.657 16.1776 254.107 16.043C254.824 15.7737 255.689 15.5826 256.698 15.4708C257.708 15.3591 258.762 15.3026 259.862 15.3026C262.912 15.3026 265.201 15.942 266.727 17.2209C268.253 18.4769 269.016 20.2053 269.016 22.4037ZM245.562 36.4713C244.508 36.4713 243.768 36.2922 243.341 35.9328C242.937 35.5734 242.735 34.9232 242.735 33.9809V15.7737C242.982 15.7293 243.33 15.6728 243.778 15.6055C244.25 15.5382 244.721 15.5045 245.192 15.5045C246.202 15.5045 246.919 15.6728 247.346 16.0093C247.794 16.3459 248.019 17.0081 248.019 17.9949V36.2021C247.773 36.2694 247.424 36.3259 246.976 36.3703C246.527 36.4376 246.056 36.4713 245.562 36.4713ZM229.943 20.2498C229.629 21.2594 229.236 22.4145 228.765 23.7162C228.317 24.9951 227.89 26.3076 227.486 27.6538H232.299C231.918 26.2403 231.525 24.8941 231.121 23.6153C230.74 22.3135 230.414 21.1921 230.145 20.2498H229.943ZM233.207 31.7597H226.611C226.365 32.5674 226.129 33.3643 225.904 34.1491C225.702 34.934 225.523 35.6299 225.366 36.2357C225.074 36.3259 224.771 36.404 224.457 36.4713C224.143 36.5386 223.761 36.5723 223.313 36.5723C222.326 36.5723 221.574 36.404 221.058 36.0674C220.564 35.7081 220.318 35.2032 220.318 34.553C220.318 34.2393 220.362 33.9364 220.452 33.6443C220.542 33.3522 220.643 33.0157 220.755 32.6347C220.913 32.0289 221.136 31.2777 221.428 30.3798C221.72 29.482 222.034 28.518 222.371 27.4855C222.73 26.4314 223.1 25.3545 223.481 24.2547C223.862 23.1549 224.232 22.1116 224.592 21.1248C224.951 20.1152 225.276 19.1957 225.568 18.3651C225.86 17.5346 226.106 16.8735 226.308 16.3795C226.645 16.1776 227.16 15.9865 227.856 15.8074C228.574 15.6283 229.281 15.5382 229.977 15.5382C230.986 15.5382 231.872 15.6836 232.635 15.9757C233.42 16.2449 233.925 16.7052 234.15 17.3555C234.576 18.5442 235.036 19.9241 235.53 21.495C236.024 23.066 236.516 24.6814 237.01 26.3413C237.526 28.0012 238.02 29.6394 238.491 31.2548C238.962 32.8703 239.377 34.3174 239.736 35.5963C239.49 35.8884 239.12 36.1239 238.626 36.303C238.155 36.4821 237.582 36.5723 236.909 36.5723C235.944 36.5723 235.26 36.404 234.856 36.0674C234.475 35.7309 234.194 35.2032 234.015 34.4857L233.207 31.7597ZM219.203 15.841C219.338 16.0658 219.461 16.3567 219.574 16.7161C219.685 17.0754 219.742 17.4673 219.742 17.894C219.742 18.6344 219.574 19.1837 219.237 19.543C218.922 19.9024 218.474 20.0815 217.891 20.0815H210.42V24.4903H218.059C218.194 24.7367 218.316 25.0287 218.429 25.3653C218.564 25.7018 218.631 26.0949 218.631 26.5432C218.631 27.2836 218.463 27.8329 218.126 28.1923C217.79 28.5288 217.34 28.6971 216.78 28.6971H210.487V36.2021C210.239 36.2694 209.892 36.3259 209.444 36.3703C208.994 36.4376 208.523 36.4713 208.03 36.4713C206.975 36.4713 206.234 36.2922 205.809 35.9328C205.405 35.5734 205.203 34.9232 205.203 33.9809V18.6344C205.203 17.7822 205.45 17.1091 205.944 16.6151C206.459 16.0995 207.143 15.841 207.996 15.841H219.203Z" fill="#292D32"/>
<path d="M182.961 27.4855H190.836L191.509 31.4568H180.975L182.961 27.4855ZM186.461 19.8123C186.236 20.5298 185.967 21.3267 185.653 22.2018C185.361 23.0768 185.047 23.9963 184.711 24.9614C184.396 25.9266 184.093 26.8797 183.802 27.8221L183.196 30.8173C183.062 31.244 182.927 31.6924 182.793 32.1635C182.68 32.6347 182.557 33.1058 182.422 33.577C182.288 34.0253 182.164 34.452 182.052 34.8559C181.939 35.2597 181.838 35.6408 181.749 36.0001C181.48 36.0674 181.188 36.1348 180.874 36.2021C180.559 36.2922 180.189 36.3367 179.764 36.3367C178.843 36.3367 178.136 36.1684 177.643 35.8319C177.149 35.4953 176.903 35.0133 176.903 34.3847C176.903 34.0926 176.937 33.8018 177.004 33.5097C177.093 33.2176 177.194 32.8811 177.307 32.5001C177.509 31.7825 177.789 30.8618 178.148 29.7404C178.529 28.5961 178.944 27.3737 179.394 26.072C179.842 24.7703 180.29 23.4806 180.74 22.2018C181.188 20.9 181.603 19.7113 181.985 18.6344C182.389 17.5574 182.713 16.7161 182.961 16.1103C183.297 15.9083 183.802 15.7293 184.475 15.5718C185.148 15.3927 185.822 15.3026 186.495 15.3026C187.459 15.3026 188.312 15.4372 189.052 15.7064C189.814 15.9757 190.298 16.424 190.5 17.0526C190.948 18.2413 191.419 19.6212 191.913 21.1921C192.406 22.7402 192.911 24.3665 193.427 26.072C193.943 27.7776 194.437 29.4375 194.908 31.0529C195.401 32.6455 195.828 34.0818 196.187 35.3607C195.962 35.6299 195.615 35.8547 195.144 36.0338C194.673 36.2129 194.122 36.303 193.495 36.303C192.552 36.303 191.89 36.1456 191.509 35.8319C191.15 35.4953 190.87 34.9905 190.668 34.3174L189.591 30.5144L189.019 27.6875C188.727 26.6778 188.435 25.7018 188.144 24.7595C187.852 23.7943 187.582 22.8977 187.336 22.0671C187.088 21.215 186.865 20.4625 186.663 19.8123H186.461ZM173.678 25.298V35.3607C173.409 35.6299 173.005 35.8427 172.467 36.0001C171.95 36.1576 171.333 36.2357 170.616 36.2357C169.852 36.2357 169.146 36.1239 168.495 35.8992C167.844 35.6528 167.306 35.1023 166.88 34.2501L162.774 26.4759C162.527 25.9603 162.28 25.4554 162.034 24.9614C161.786 24.4674 161.551 23.9746 161.327 23.4806C161.102 22.9866 160.877 22.4818 160.654 21.9662L155.774 23.0431V16.4805C156.065 16.0995 156.492 15.8074 157.053 15.6055C157.613 15.4035 158.219 15.3026 158.87 15.3026C159.632 15.3026 160.339 15.4264 160.99 15.6728C161.664 15.9192 162.202 16.4576 162.606 17.2882L166.745 25.0961C167.015 25.5672 167.261 26.0612 167.486 26.5769C167.732 27.0709 167.968 27.5757 168.193 28.0913C168.416 28.5853 168.63 29.0901 168.832 29.6058L173.678 28.4952V25.298ZM169.034 30.1779C168.876 28.518 168.786 26.9471 168.765 25.4663V21.2258V15.5381C168.988 15.4937 169.314 15.4372 169.741 15.3699C170.166 15.3026 170.604 15.2689 171.053 15.2689C172.017 15.2689 172.69 15.4372 173.072 15.7737C173.476 16.1103 173.678 16.7161 173.678 17.5911V30.1106L169.034 30.1779ZM160.418 21.3267C160.507 22.2691 160.575 23.2114 160.62 24.1537C160.665 25.0961 160.688 26.0047 160.688 26.8797V29.4375V35.9665C160.507 36.011 160.194 36.0674 159.745 36.1348C159.319 36.2021 158.881 36.2357 158.433 36.2357C157.468 36.2357 156.784 36.0674 156.38 35.7309C155.976 35.3944 155.774 34.7886 155.774 33.9136V21.3604L160.418 21.3267ZM145.881 28.1923V15.5381C146.128 15.4937 146.476 15.4372 146.924 15.3699C147.374 15.3026 147.822 15.2689 148.27 15.2689C149.235 15.2689 149.931 15.4372 150.357 15.7737C150.784 16.1103 150.996 16.7389 150.996 17.6584V28.1923H145.881ZM150.996 21.7979V35.9665C150.773 36.011 150.436 36.0674 149.987 36.1348C149.561 36.2021 149.112 36.2357 148.64 36.2357C147.631 36.2357 146.913 36.0566 146.487 35.6972C146.083 35.3379 145.881 34.7213 145.881 33.8462V21.7979H150.996ZM125.723 23.7162H138.882V27.7884H125.723V23.7162ZM135.988 28.1923V15.5381C136.212 15.4937 136.549 15.4372 136.997 15.3699C137.468 15.3026 137.917 15.2689 138.343 15.2689C139.308 15.2689 140.003 15.448 140.43 15.8074C140.878 16.1439 141.103 16.7834 141.103 17.7257V28.1923H135.988ZM141.103 21.7979V35.9665C140.878 36.011 140.542 36.0674 140.093 36.1348C139.645 36.2021 139.185 36.2357 138.714 36.2357C137.727 36.2357 137.02 36.0566 136.593 35.6972C136.189 35.3379 135.988 34.7213 135.988 33.8462V21.7979H141.103ZM123.401 28.1923V15.5381C123.625 15.4937 123.962 15.4372 124.41 15.3699C124.881 15.3026 125.33 15.2689 125.757 15.2689C126.722 15.2689 127.416 15.4372 127.843 15.7737C128.291 16.1103 128.516 16.7389 128.516 17.6584V28.1923H123.401ZM128.516 21.7979V35.9665C128.291 36.011 127.955 36.0674 127.507 36.1348C127.08 36.2021 126.632 36.2357 126.16 36.2357C125.151 36.2357 124.433 36.0566 124.006 35.6972C123.603 35.3379 123.401 34.7213 123.401 33.8462V21.7979H128.516ZM119.794 18.3651C119.794 18.8591 119.659 19.3075 119.39 19.7113C119.121 20.0923 118.818 20.3844 118.481 20.5863C117.92 20.2053 117.28 19.8688 116.563 19.5767C115.867 19.2846 115.036 19.1392 114.072 19.1392C112.861 19.1392 111.818 19.3976 110.942 19.9132C110.089 20.4289 109.428 21.1921 108.957 22.2018C108.486 23.1886 108.25 24.3893 108.25 25.8028C108.25 27.9795 108.789 29.6286 109.866 30.75C110.964 31.8714 112.445 32.4328 114.308 32.4328C115.295 32.4328 116.136 32.2981 116.832 32.0289C117.527 31.7597 118.166 31.446 118.75 31.0866C119.087 31.333 119.356 31.6587 119.558 32.0626C119.782 32.4436 119.895 32.8931 119.895 33.4087C119.895 33.8571 119.771 34.2729 119.524 34.654C119.3 35.0133 118.907 35.327 118.346 35.5963C117.92 35.821 117.314 36.0338 116.529 36.2357C115.766 36.4605 114.813 36.5723 113.669 36.5723C111.694 36.5723 109.899 36.1912 108.284 35.428C106.668 34.6431 105.377 33.4532 104.413 31.8606C103.471 30.268 103 28.2488 103 25.8028C103 23.4698 103.459 21.5058 104.38 19.9132C105.322 18.2978 106.578 17.0754 108.149 16.2449C109.742 15.4143 111.481 14.9997 113.366 14.9997C114.689 14.9997 115.833 15.1571 116.798 15.4708C117.762 15.7629 118.503 16.1668 119.02 16.6824C119.535 17.1764 119.794 17.7365 119.794 18.3651Z" fill="#292D32"/>
</svg>
