<svg width="91" height="67" viewBox="0 0 91 67" fill="none" xmlns="http://www.w3.org/2000/svg">
<path d="M13.4637 38.2314C14.0186 39.2445 14.3554 40.2168 14.1825 40.7717H30.9395C32.0475 30.4924 21.9339 26.2936 16.7389 25.2601C14.0833 24.6689 8.01068 22.694 4.96331 21.2758C1.15365 19.503 -1.96374 19.9462 1.49934 26.5932C4.62471 32.5895 8.5044 34.997 11.8026 36.6953C12.4878 37.0489 13.0932 37.555 13.4637 38.2314Z" fill="black"/>
<path d="M28.3645 -7.62939e-06C32.2646 -7.62939e-06 31.762 4.13672 31.0236 6.20465C28.1872 5.8501 24.5238 10.1934 23.0462 12.4093C19.9439 7.53422 23.4894 -7.62939e-06 28.3645 -7.62939e-06Z" fill="black"/>
<path d="M24.8183 9.30611C24.6703 7.68138 25.7047 4.69694 29.2502 5.7606L24.8183 9.30611Z" fill="#E42825"/>
<path d="M64.262 0.443188C56.4619 -1.32957 55.103 4.72706 55.3982 7.97741C57.5255 8.33196 61.3077 14.6253 62.9324 17.7276C71.7962 15.5116 74.0122 2.65914 64.262 0.443188Z" fill="black"/>
<path d="M63.8192 7.53249C66.301 10.3689 63.376 12.2596 61.6032 12.8508C60.8941 11.7871 58.6489 9.45328 57.6145 8.41887C58.0577 5.75974 60.7168 3.98698 63.8192 7.53249Z" fill="#E42825"/>
<path d="M35.0125 3.54376C15.1576 8.50748 17.58 31.3167 21.2736 42.1013H66.4789C66.9221 38.1126 67.8085 29.5147 67.8085 27.0328C67.8085 23.9305 59.8311 -2.6609 35.0125 3.54376Z" fill="#E42825"/>
<path d="M61.6965 13.3371C59.4805 10.678 51.5031 -0.623329 34.6619 3.58697C23.7054 6.32588 19.5332 14.4992 18.614 23.0873C18.7931 27.9624 22.9617 37.5353 38.2074 36.8262C53.4532 36.1171 60.2189 20.8714 61.6965 13.3371Z" fill="white"/>
<path d="M73.1267 37.6702C70.9107 38.5565 70.6156 40.0386 70.9107 40.7769H54.5127C53.0945 30.4949 66.0356 25.8565 72.6835 24.8221C76.081 24.2318 80.7495 23.1335 84.6496 21.7153C89.5247 19.9426 93.5134 20.3858 89.0815 27.0336C84.6496 33.6814 77.727 35.83 73.1267 37.6702Z" fill="black"/>
<path d="M33.8967 21.0749C34.2513 22.4931 36.1136 23.4389 36.9999 23.734C37.8863 23.4389 39.7477 22.4931 40.1023 21.0749C40.5455 19.3021 38.3295 19.3021 36.9999 19.7453C35.6704 19.3021 33.4535 19.3021 33.8967 21.0749Z" fill="black"/>
<path d="M40.773 13.2942C39.7093 17.5488 45.0568 21.5668 47.864 23.0444C49.4887 23.4876 52.8277 23.5762 53.1823 20.3852C53.6255 16.3965 51.8527 11.0782 49.1936 9.30548C46.5344 7.53272 42.1025 7.97591 40.773 13.2942Z" fill="black"/>
<path d="M34.1264 11.5214C35.1422 16.3964 29.402 21.1067 27.0353 22.6011C25.665 23.0496 23.1042 23.3687 23.1042 20.1281C23.1042 16.8396 24.8194 13.2941 26.149 11.5214C27.8712 9.22475 33.0051 6.14281 34.1264 11.5214Z" fill="black"/>
<path d="M30.1368 13.294C31.1162 13.294 31.9095 14.0873 31.9095 15.0667C31.9095 16.0462 31.1162 16.8395 30.1368 16.8395C29.1573 16.8395 28.364 16.0462 28.364 15.0667C28.364 14.0873 29.1573 13.294 30.1368 13.294Z" fill="white"/>
<path d="M44.8033 13.294C45.7827 13.294 46.576 14.0873 46.576 15.0667C46.576 16.0462 45.7827 16.8395 44.8033 16.8395C43.8238 16.8395 43.0305 16.0462 43.0305 15.0667C43.0305 14.0873 43.8238 13.294 44.8033 13.294Z" fill="white"/>
<path d="M31.2375 24.8186C31.2375 28.3641 34.7831 31.0233 36.9999 31.0233C39.2158 31.0233 42.7614 28.3641 42.7614 24.8186C42.7614 24.2274 42.3182 23.4004 40.5454 24.8186C38.7727 26.2368 37.4431 26.1482 36.9999 26.1482C36.5567 26.1482 35.2263 26.2368 33.4535 24.8186C31.6807 23.4004 31.2375 24.2274 31.2375 24.8186Z" fill="black"/>
<path d="M36.9987 27.0331C35.9351 27.0331 34.4761 28.8786 33.8857 29.7649C36.9987 32.3842 39.5364 30.1532 39.7926 29.9936C39.3494 29.1072 38.0624 27.0331 36.9987 27.0331Z" fill="#E42825"/>
<path d="M34.9618 3.54379C15.0759 8.50751 17.5028 31.3167 21.2017 42.1013H66.477C66.9202 38.1126 67.8084 29.5147 67.8084 27.0328C67.8084 23.9305 59.8186 -2.66087 34.9618 3.54379Z" stroke="black" stroke-width="1.33333"/>
<path d="M7.97778 39.8862H54.4054V66.4776H7.97778V39.8862Z" fill="#FCBF77"/>
<path d="M54.405 39.8862H77.1158V66.4776H54.405V39.8862Z" fill="#E7AB65"/>
</svg>
